<svg xmlns="http://www.w3.org/2000/svg" viewBox="0 0 512 512">
  <path fill="#006233" d="M0 0h204.8v512H0z"/>
  <path fill="#d21034" d="M204.8 0H512v512H204.8z"/>
  <g transform="translate(204.8 256) scale(7.1111)">
    <g fill="none" stroke-width=".7">
      <circle r="9" stroke="#ff0"/>
      <circle r="7" stroke="#d21034"/>
      <g id="a" stroke="#fff">
        <path d="M0-7v14"/>
        <path d="M-1.8-6.8 1.8 6.8"/>
        <path d-path="M-3.5-6.1 3.5 6.1"/>
        <path d="M-5-4.6 5 4.6"/>
        <path d="M-6.1-3.5 6.1 3.5"/>
        <path d="M-6.8-1.8 6.8 1.8"/>
        <path d="M-7 0h14"/>
      </g>
      <use href="#a" transform="rotate(90)"/>
    </g>
    <path fill="#00247d" d="M-2.5 1.5h5v4h-5z"/>
    <path fill="#00247d" d="M-2 2h4v3h-4z" transform="rotate(180)"/>
    <path id="b" fill="#fff" d="M-2 2h1v1h-1z"/>
    <use href="#b" x="1"/>
    <use href="#b" x="2"/>
    <use href="#b" x="3"/>
    <use href="#b" y="1"/>
    <use href="#b" x="1" y="1"/>
    <use href="#b" x="2" y="1"/>
    <use href="#b" x="3" y="1"/>
    <use href="#b" y="2"/>
    <use href="#b" x="1" y="2"/>
    <use href="#b" x="2" y="2"/>
    <use href="#b" x="3" y="2"/>
    <path fill="#fff" d="M.5-1.5h-1v-4h1z"/>
    <use href="#b" x="-3"/>
    <use href="#b" x="-2" y="-1"/>
    <use href="#b" x="-1" y="-2"/>
    <use href="#b" y="-3"/>
    <use href="#b" x="1" y="-2"/>
    <use href="#b" x="2" y="-1"/>
    <use href="#b" x="3"/>
  </g>
</svg>
